<svg width="33" height="32" viewBox="0 0 33 32" fill="none" xmlns="http://www.w3.org/2000/svg">
<g id="Logo OBINEX" clip-path="url(#clip0_67_3000)">
<path id="Vector" d="M25.8458 18.2327C25.1628 17.4678 24.7101 16.6099 24.8729 15.5229C24.997 14.7007 25.4692 14.0906 26.0191 13.5193C26.3882 13.1352 26.7633 12.7419 27.0487 12.2944C27.5807 11.4614 27.5762 10.5757 27.1085 9.69926C26.6408 8.81975 25.9235 8.32115 24.9536 8.38618C24.2334 8.43419 23.5191 8.61845 22.8078 8.76865C21.1879 9.1093 19.9879 8.44502 19.3872 6.84859C19.314 6.65348 19.2617 6.45064 19.2004 6.25089C19.0584 5.78016 18.9508 5.2955 18.767 4.84181C18.2694 3.6139 17.1531 3.04717 15.9024 3.35221C14.8817 3.60151 14.3512 4.34631 14.0479 5.31873C13.8611 5.91643 13.7116 6.5327 13.4755 7.10872C12.9256 8.45122 11.7899 9.06904 10.4047 8.81355C9.74714 8.69277 9.10009 8.51161 8.44257 8.39393C6.93328 8.1245 5.5779 9.33383 5.56446 10.921C5.55848 11.6813 5.90816 12.2681 6.35347 12.8147C6.72407 13.2669 7.13651 13.6834 7.49067 14.1479C8.47694 15.444 8.41567 16.8623 7.34273 18.0748C7.1664 18.2745 6.94972 18.4402 6.78534 18.6492C6.42819 19.1076 6.01127 19.5411 5.76619 20.0599C5.01454 21.6516 6.31462 23.8535 8.2229 23.5825C8.81317 23.4989 9.38999 23.3255 9.98026 23.245C10.4839 23.1769 11.0099 23.0948 11.5015 23.1769C12.682 23.3735 13.3067 24.2453 13.6788 25.3431C13.8611 25.8789 13.9941 26.4301 14.1809 26.9643C14.4633 27.7711 14.9505 28.3842 15.7918 28.6134C17.0993 28.9696 18.2933 28.3765 18.8014 27.0805C19.0241 26.5106 19.1705 25.9083 19.3573 25.323C19.5471 24.7284 19.822 24.1833 20.2898 23.7684C21.0549 23.087 21.941 23.0034 22.8855 23.2264C23.5116 23.3751 24.1392 23.5175 24.5083 23.6027C25.8697 23.5996 26.5974 23.2233 27.0637 22.4228C27.6614 21.3962 27.5732 20.2797 26.7932 19.2934C26.4988 18.9217 26.1626 18.5857 25.8458 18.2311V18.2327ZM16.5464 21.9877C13.4038 21.9877 10.8559 19.3476 10.8559 16.0912C10.8559 12.8348 13.4038 10.1948 16.5464 10.1948C19.689 10.1948 22.2369 12.8348 22.2369 16.0912C22.2369 19.3476 19.689 21.9877 16.5464 21.9877Z" fill="black"/>
<path id="Vector_2" d="M3.06729 18.6525C4.48517 18.6525 5.63459 17.4614 5.63459 15.9922C5.63459 14.5231 4.48517 13.332 3.06729 13.332C1.64942 13.332 0.5 14.5231 0.5 15.9922C0.5 17.4614 1.64942 18.6525 3.06729 18.6525Z" fill="black"/>
<path id="Vector_3" d="M3.06729 18.6525C4.48517 18.6525 5.63459 17.4614 5.63459 15.9922C5.63459 14.5231 4.48517 13.332 3.06729 13.332C1.64942 13.332 0.5 14.5231 0.5 15.9922C0.5 17.4614 1.64942 18.6525 3.06729 18.6525Z" fill="black"/>
<path id="Vector_4" d="M29.9325 18.6525C31.3504 18.6525 32.4998 17.4614 32.4998 15.9922C32.4998 14.5231 31.3504 13.332 29.9325 13.332C28.5147 13.332 27.3652 14.5231 27.3652 15.9922C27.3652 17.4614 28.5147 18.6525 29.9325 18.6525Z" fill="black"/>
<path id="Vector_5" d="M4.00437 8.29168C4.79584 8.29168 5.43745 7.62684 5.43745 6.80673C5.43745 5.98661 4.79584 5.32178 4.00437 5.32178C3.2129 5.32178 2.57129 5.98661 2.57129 6.80673C2.57129 7.62684 3.2129 8.29168 4.00437 8.29168Z" fill="black"/>
<path id="Vector_6" d="M9.43166 3.69147C10.4154 3.69147 11.2129 2.86511 11.2129 1.84574C11.2129 0.826365 10.4154 0 9.43166 0C8.44789 0 7.65039 0.826365 7.65039 1.84574C7.65039 2.86511 8.44789 3.69147 9.43166 3.69147Z" fill="black"/>
<path id="Vector_7" d="M29.0434 8.29168C29.8349 8.29168 30.4765 7.62684 30.4765 6.80673C30.4765 5.98661 29.8349 5.32178 29.0434 5.32178C28.252 5.32178 27.6104 5.98661 27.6104 6.80673C27.6104 7.62684 28.252 8.29168 29.0434 8.29168Z" fill="black"/>
<path id="Vector_8" d="M23.6162 3.69147C24.6 3.69147 25.3975 2.86511 25.3975 1.84574C25.3975 0.826365 24.6 0 23.6162 0C22.6325 0 21.835 0.826365 21.835 1.84574C21.835 2.86511 22.6325 3.69147 23.6162 3.69147Z" fill="black"/>
<path id="Vector_9" d="M28.7793 26.6779C29.5707 26.6779 30.2124 26.0131 30.2124 25.193C30.2124 24.3728 29.5707 23.708 28.7793 23.708C27.9878 23.708 27.3462 24.3728 27.3462 25.193C27.3462 26.0131 27.9878 26.6779 28.7793 26.6779Z" fill="black"/>
<path id="Vector_10" d="M23.3516 32.0001C24.3353 32.0001 25.1328 31.1737 25.1328 30.1543C25.1328 29.135 24.3353 28.3086 23.3516 28.3086C22.3678 28.3086 21.5703 29.135 21.5703 30.1543C21.5703 31.1737 22.3678 32.0001 23.3516 32.0001Z" fill="black"/>
<path id="Vector_11" d="M3.73826 26.6779C4.52973 26.6779 5.17134 26.0131 5.17134 25.193C5.17134 24.3728 4.52973 23.708 3.73826 23.708C2.94679 23.708 2.30518 24.3728 2.30518 25.193C2.30518 26.0131 2.94679 26.6779 3.73826 26.6779Z" fill="black"/>
<path id="Vector_12" d="M9.16554 32.0001C10.1493 32.0001 10.9468 31.1737 10.9468 30.1543C10.9468 29.135 10.1493 28.3086 9.16554 28.3086C8.18178 28.3086 7.38428 29.135 7.38428 30.1543C7.38428 31.1737 8.18178 32.0001 9.16554 32.0001Z" fill="black"/>
<path id="Vector_13" d="M16.5016 18.2591C18.1044 18.2591 19.4037 17.2455 19.4037 15.9953C19.4037 14.745 18.1044 13.7314 16.5016 13.7314C14.8989 13.7314 13.5996 14.745 13.5996 15.9953C13.5996 17.2455 14.8989 18.2591 16.5016 18.2591Z" fill="black"/>
</g>
<defs>
<clipPath id="clip0_67_3000">
<rect width="32" height="32" fill="white" transform="translate(0.5)"/>
</clipPath>
</defs>
</svg>
