<svg width="15" height="16" viewBox="0 0 15 16" fill="none" xmlns="http://www.w3.org/2000/svg">
<g id="Logo Discord" clip-path="url(#clip0_119_4237)">
<path id="Vector" d="M14.648 15.0957L10.9075 11.9758L11.2844 13.334H2.52753C0.61377 13.334 0.61377 11.6824 0.61377 11.6824V1.66281C0.61377 1.66281 0.61377 0.300808 2.04735 0.0508684L2.06359 0.0112305H13.1982L13.1622 0.043161C14.6463 0.269428 14.648 1.66281 14.648 1.66281V15.0957ZM11.3477 4.60593C11.2033 3.95025 9.01692 3.28356 8.81859 3.59076C8.88644 3.77904 9.90711 3.81977 10.8669 4.58556C9.96163 4.02787 8.5582 3.86932 7.87273 3.82418L7.64423 3.81262H7.64017L7.4169 3.82418C6.73085 3.86877 5.32974 4.02732 4.42389 4.58501C5.38368 3.81922 6.40551 3.77849 6.47278 3.59021C6.27444 3.28356 4.08812 3.9497 3.94371 4.60538C3.94371 4.60538 2.803 6.71665 2.9764 8.73268C3.65259 9.6493 5.07979 9.92512 5.46545 9.83373C5.85168 9.37514 5.90851 9.24577 5.90851 9.24577C5.90851 9.24577 4.82868 8.82406 4.56076 8.35667C5.13431 8.64459 5.65856 9.14942 7.39834 9.20448H7.86229C9.60207 9.14942 10.142 8.64459 10.7155 8.35667C10.447 8.82406 9.38112 9.24907 9.38112 9.24907C9.38112 9.24907 9.43853 9.37679 9.82476 9.83538C10.2104 9.92677 11.6388 9.64985 12.3144 8.73323C12.4884 6.7172 11.3471 4.60538 11.3471 4.60538L11.3477 4.60593Z" fill="#1C1725"/>
<path id="Vector_2" d="M5.36627 7.16806C5.36627 6.66983 5.67653 6.3208 6.20195 6.3208C6.72736 6.3208 6.97963 6.8994 6.97963 7.16806C6.97963 7.38827 6.72736 8.01532 6.20195 8.01532C5.67653 8.01532 5.36627 7.66629 5.36627 7.16806Z" fill="#1C1725"/>
<path id="Vector_3" d="M9.87868 7.16806C9.87868 6.66983 9.56842 6.3208 9.043 6.3208C8.51759 6.3208 8.26532 6.8994 8.26532 7.16806C8.26532 7.38827 8.51759 8.01532 9.043 8.01532C9.56842 8.01532 9.87868 7.66629 9.87868 7.16806Z" fill="#1C1725"/>
</g>
<defs>
<clipPath id="clip0_119_4237">
<rect width="14.0343" height="15.0844" fill="white" transform="translate(0.61377 0.0112305)"/>
</clipPath>
</defs>
</svg>
