<svg width="14" height="14" viewBox="0 0 14 14" fill="none" xmlns="http://www.w3.org/2000/svg">
<g id="Instagram">
<g id="insta">
<g id="16px-logo-instagram">
<path id="Oval" d="M10.5424 3.97589C10.9742 3.97589 11.3243 3.6247 11.3243 3.1915C11.3243 2.75829 10.9742 2.4071 10.5424 2.4071C10.1106 2.4071 9.7605 2.75829 9.7605 3.1915C9.7605 3.6247 10.1106 3.97589 10.5424 3.97589Z" fill="#1C1725"/>
<path id="Shape" fill-rule="evenodd" clip-rule="evenodd" d="M3.90839 6.54796C3.90839 8.35042 5.36958 9.81625 7.16634 9.81625C8.9631 9.81625 10.4243 8.35042 10.4243 6.54796C10.4243 4.74549 8.9631 3.27966 7.16634 3.27966C5.36958 3.27966 3.90839 4.74549 3.90839 6.54796ZM5.53737 6.54785C5.53737 5.64662 6.26797 4.91371 7.16635 4.91371C8.06473 4.91371 8.79533 5.64662 8.79533 6.54785C8.79533 7.44909 8.06473 8.182 7.16635 8.182C6.26797 8.182 5.53737 7.44909 5.53737 6.54785Z" fill="#1C1725"/>
<path id="Shape_2" fill-rule="evenodd" clip-rule="evenodd" d="M3.9084 13.0844H10.4243C12.0989 13.0844 13.6823 11.496 13.6823 9.81611V3.27952C13.6823 1.59962 12.0989 0.0112305 10.4243 0.0112305H3.9084C2.23382 0.0112305 0.650452 1.59962 0.650452 3.27952V9.81611C0.650452 11.496 2.23382 13.0844 3.9084 13.0844ZM2.27952 3.27965C2.27952 2.51569 3.14695 1.64551 3.9085 1.64551H10.4244C11.1859 1.64551 12.0534 2.51569 12.0534 3.27965V9.81624C12.0534 10.5802 11.1859 11.4504 10.4244 11.4504H3.9085C3.13229 11.4504 2.27952 10.5949 2.27952 9.81624V3.27965Z" fill="#1C1725"/>
</g>
</g>
</g>
</svg>
