<svg width="14" height="15" viewBox="0 0 14 15" fill="none" xmlns="http://www.w3.org/2000/svg">
<g id="linkedin">
<g id="Linkedin icon">
<g id="linkedin_2">
<path id="Oval" d="M1.73075 4.15389C2.66501 4.15389 3.42238 3.39411 3.42238 2.45689C3.42238 1.51966 2.66501 0.759888 1.73075 0.759888C0.796492 0.759888 0.0391235 1.51966 0.0391235 2.45689C0.0391235 3.39411 0.796492 4.15389 1.73075 4.15389Z" fill="#1C1725"/>
<path id="Shape" d="M3.14044 5.28503H0.321062C0.165432 5.28503 0.0391235 5.41174 0.0391235 5.56787V14.0529C0.0391235 14.209 0.165432 14.3357 0.321062 14.3357H3.14044C3.29607 14.3357 3.42238 14.209 3.42238 14.0529V5.56787C3.42238 5.41174 3.29607 5.28503 3.14044 5.28503Z" fill="#1C1725"/>
<path id="Shape_2" d="M11.5405 4.89532C10.3355 4.48125 8.8283 4.84497 7.92441 5.49718C7.89339 5.37557 7.78287 5.28506 7.65149 5.28506H4.83211C4.67648 5.28506 4.55017 5.41177 4.55017 5.56789V14.0529C4.55017 14.209 4.67648 14.3357 4.83211 14.3357H7.65149C7.80712 14.3357 7.93343 14.209 7.93343 14.0529V7.955C8.38904 7.5613 8.97603 7.43572 9.45646 7.64049C9.92222 7.83791 10.1889 8.31986 10.1889 8.96189V14.0529C10.1889 14.209 10.3152 14.3357 10.4709 14.3357H13.2903C13.4459 14.3357 13.5722 14.209 13.5722 14.0529V8.39226C13.54 6.06794 12.4501 5.20756 11.5405 4.89532Z" fill="#1C1725"/>
</g>
</g>
</g>
</svg>
