<svg width="252" height="257" viewBox="0 0 252 257" fill="none" xmlns="http://www.w3.org/2000/svg">
<g id="ticket">
<g id="Group 7">
<g id="Vector" filter="url(#filter0_f_161_2524)">
<path d="M126.119 168.657C146.738 168.657 163.453 150.61 163.453 128.349C163.453 106.088 146.738 88.0417 126.119 88.0417C105.5 88.0417 88.7853 106.088 88.7853 128.349C88.7853 150.61 105.5 168.657 126.119 168.657Z" fill="url(#paint0_linear_161_2524)" fill-opacity="0.9"/>
</g>
<path id="Vector_2" d="M152.909 168.511H119.709C113.942 168.511 109.269 163.838 109.269 158.072V114.15C109.269 111.737 110.106 109.405 111.626 107.539L128.226 87.2469C132.4 82.1397 140.21 82.1397 144.384 87.2469L160.984 107.539C162.513 109.405 163.341 111.737 163.341 114.15V158.072C163.341 163.838 158.668 168.511 152.901 168.511H152.909Z" fill="url(#paint1_linear_161_2524)"/>
<g id="Vector_3" filter="url(#filter1_b_161_2524)">
<path d="M150.268 118.211L147.565 92.136C146.882 85.5731 140.367 81.2783 134.069 83.2487L109.048 91.0583C106.748 91.7741 104.77 93.27 103.443 95.2807L79.2741 131.956C76.1053 136.773 77.4323 143.248 82.2499 146.417L109.973 164.682C114.791 167.851 121.265 166.524 124.434 161.706L148.595 125.031C149.922 123.02 150.509 120.607 150.26 118.211H150.268ZM142.884 98.2083C140.6 101.675 135.943 102.632 132.477 100.348C129.011 98.0635 128.054 93.4067 130.338 89.9403C132.622 86.4739 137.279 85.5168 140.745 87.8009C144.211 90.0851 145.169 94.7418 142.884 98.2083Z" fill="url(#paint2_linear_161_2524)"/>
<path d="M149.159 117.211H149.15L149.265 118.314C149.49 120.482 148.959 122.663 147.76 124.48L147.76 124.481L123.599 161.156L123.599 161.156C120.734 165.511 114.881 166.712 110.524 163.847L149.159 117.211ZM149.159 117.211L146.571 92.2396C145.952 86.3039 140.061 82.4217 134.368 84.2031L134.367 84.2033L109.346 92.0128L109.346 92.0131C107.268 92.6596 105.479 94.0115 104.278 95.831L149.159 117.211ZM110.523 163.846L82.8001 145.582L82.7995 145.581C78.4447 142.717 77.2433 136.863 80.1096 132.505L104.277 95.8315L110.523 163.846ZM131.927 101.183C135.854 103.771 141.131 102.686 143.719 98.7585C146.307 94.831 145.223 89.554 141.295 86.9659C137.368 84.3779 132.091 85.4624 129.503 89.3901C126.915 93.3176 127.999 98.5946 131.927 101.183Z" stroke="url(#paint3_linear_161_2524)" stroke-width="2"/>
</g>
</g>
</g>
<defs>
<filter id="filter0_f_161_2524" x="0.785332" y="0.041748" width="250.668" height="256.615" filterUnits="userSpaceOnUse" color-interpolation-filters="sRGB">
<feFlood flood-opacity="0" result="BackgroundImageFix"/>
<feBlend mode="normal" in="SourceGraphic" in2="BackgroundImageFix" result="shape"/>
<feGaussianBlur stdDeviation="44" result="effect1_foregroundBlur_161_2524"/>
</filter>
<filter id="filter1_b_161_2524" x="59.5522" y="64.7671" width="108.764" height="119.637" filterUnits="userSpaceOnUse" color-interpolation-filters="sRGB">
<feFlood flood-opacity="0" result="BackgroundImageFix"/>
<feGaussianBlur in="BackgroundImageFix" stdDeviation="9"/>
<feComposite in2="SourceAlpha" operator="in" result="effect1_backgroundBlur_161_2524"/>
<feBlend mode="normal" in="SourceGraphic" in2="effect1_backgroundBlur_161_2524" result="shape"/>
</filter>
<linearGradient id="paint0_linear_161_2524" x1="88.7853" y1="128.349" x2="163.453" y2="128.349" gradientUnits="userSpaceOnUse">
<stop stop-color="#77C3ED"/>
<stop offset="1" stop-color="#0060FF"/>
</linearGradient>
<linearGradient id="paint1_linear_161_2524" x1="109.269" y1="125.964" x2="163.341" y2="125.964" gradientUnits="userSpaceOnUse">
<stop stop-color="#77C3ED"/>
<stop offset="1" stop-color="#0060FF"/>
</linearGradient>
<linearGradient id="paint2_linear_161_2524" x1="81.6601" y1="161.682" x2="155.139" y2="97.7552" gradientUnits="userSpaceOnUse">
<stop stop-color="white" stop-opacity="0.2"/>
<stop offset="1" stop-color="white" stop-opacity="0.49"/>
</linearGradient>
<linearGradient id="paint3_linear_161_2524" x1="82.6884" y1="89.345" x2="152.575" y2="154.355" gradientUnits="userSpaceOnUse">
<stop stop-color="white"/>
<stop offset="1" stop-color="white" stop-opacity="0"/>
</linearGradient>
</defs>
</svg>
