<svg width="280" height="238" viewBox="0 0 280 238" fill="none" xmlns="http://www.w3.org/2000/svg">
<g id="Group 47072">
<g id="Group">
<path id="Vector" d="M182.776 100.447C180.407 98.0962 177.04 96.6117 173.674 96.6117H151.355V77.5602C151.355 76.0757 150.108 74.7148 148.487 74.7148C146.866 74.7148 145.62 75.952 145.62 77.5602V96.7354H123.675C116.693 96.7354 110.957 102.302 110.957 109.23V130.756C110.957 137.684 116.693 143.251 123.675 143.251C130.034 143.251 135.271 138.673 136.268 132.859H161.205C162.203 138.797 167.439 143.375 173.798 143.375C180.781 143.375 186.516 137.808 186.516 130.88V109.23C186.392 106.014 185.145 102.921 182.776 100.447ZM180.656 130.756C180.656 134.591 177.539 137.684 173.549 137.684C169.559 137.684 166.442 134.591 166.442 130.756C166.442 128.777 164.821 127.168 162.826 127.168H134.398C132.403 127.168 130.782 128.777 130.782 130.756C130.782 134.467 127.54 137.56 123.675 137.56C119.685 137.56 116.568 134.467 116.568 130.632V109.23C116.568 105.395 119.81 102.302 123.675 102.302H173.674C175.544 102.302 177.414 103.045 178.786 104.406C180.033 105.643 180.781 107.375 180.781 109.23V130.756H180.656Z" fill="url(#paint0_linear_161_2644)"/>
<path id="Vector_2" d="M135.021 112.446H132.278V109.849C132.278 108.364 131.031 107.003 129.41 107.003C127.79 107.003 126.543 108.24 126.543 109.849V112.446H123.8C122.303 112.446 120.932 113.684 120.932 115.292C120.932 116.9 122.179 118.137 123.8 118.137H126.543V120.735C126.543 122.22 127.79 123.58 129.41 123.58C131.031 123.58 132.278 122.343 132.278 120.735V118.137H135.021C136.518 118.137 137.889 116.9 137.889 115.292C137.889 113.684 136.518 112.446 135.021 112.446ZM169.808 112.694H170.307C170.432 112.694 170.681 112.57 170.806 112.57C170.931 112.446 171.18 112.446 171.305 112.323L171.679 111.952C172.178 111.457 172.552 110.715 172.552 109.972C172.552 109.23 172.302 108.488 171.679 107.993L171.305 107.622C171.18 107.498 170.931 107.498 170.806 107.374C170.681 107.251 170.432 107.251 170.307 107.251C169.434 107.127 168.437 107.374 167.814 107.993C167.315 108.488 166.941 109.23 166.941 109.972C166.941 110.715 167.19 111.457 167.814 111.952C168.312 112.323 169.06 112.694 169.808 112.694ZM166.317 113.312L165.943 112.941C165.819 112.818 165.569 112.818 165.445 112.694C165.32 112.57 165.07 112.57 164.946 112.57C164.073 112.446 163.075 112.694 162.452 113.312C161.953 113.807 161.579 114.55 161.579 115.292C161.579 116.034 161.829 116.776 162.452 117.271C162.701 117.519 163.075 117.766 163.325 117.89C163.699 118.013 164.073 118.137 164.447 118.137H164.946C165.195 118.137 165.32 118.013 165.445 118.013C165.569 118.013 165.819 117.89 165.943 117.766L166.317 117.395C166.816 116.9 167.19 116.158 167.19 115.416C167.19 114.55 166.816 113.807 166.317 113.312ZM167.814 119.251C167.315 119.745 166.941 120.488 166.941 121.23C166.941 121.972 167.19 122.714 167.814 123.209L168.188 123.58C168.312 123.704 168.562 123.828 168.686 123.828C168.811 123.952 169.06 123.952 169.185 123.952H170.183C170.307 123.952 170.557 123.828 170.681 123.828C170.806 123.704 171.055 123.704 171.18 123.58L171.554 123.209C172.053 122.714 172.427 121.972 172.427 121.23C172.427 120.488 172.178 119.745 171.554 119.251C170.806 118.137 168.936 118.137 167.814 119.251ZM177.788 114.178C177.664 114.055 177.664 113.807 177.539 113.684L177.165 113.312C176.541 112.694 175.544 112.323 174.671 112.57C174.547 112.57 174.297 112.694 174.172 112.694C174.048 112.694 173.798 112.818 173.674 112.941L173.3 113.312L172.926 113.684C172.801 113.807 172.676 114.055 172.676 114.178C172.552 114.302 172.552 114.55 172.552 114.673V115.168C172.552 115.91 172.801 116.653 173.424 117.147C173.923 117.642 174.671 118.013 175.419 118.013C176.167 118.013 176.916 117.766 177.414 117.147C177.913 116.653 178.287 115.91 178.287 115.168V114.673C177.913 114.55 177.913 114.426 177.788 114.178Z" fill="url(#paint1_linear_161_2644)"/>
</g>
<g id="Group 47071">
<path id="Vector_3" d="M182.776 100.447C180.407 98.0962 177.04 96.6117 173.674 96.6117H151.355V77.5602C151.355 76.0757 150.108 74.7148 148.487 74.7148C146.866 74.7148 145.62 75.952 145.62 77.5602V96.7354H123.675C116.693 96.7354 110.957 102.302 110.957 109.23V130.756C110.957 137.684 116.693 143.251 123.675 143.251C130.034 143.251 135.271 138.673 136.268 132.859H161.205C162.203 138.797 167.439 143.375 173.798 143.375C180.781 143.375 186.516 137.808 186.516 130.88V109.23C186.392 106.014 185.145 102.921 182.776 100.447ZM180.656 130.756C180.656 134.591 177.539 137.684 173.549 137.684C169.559 137.684 166.442 134.591 166.442 130.756C166.442 128.777 164.821 127.168 162.826 127.168H134.398C132.403 127.168 130.782 128.777 130.782 130.756C130.782 134.467 127.54 137.56 123.675 137.56C119.685 137.56 116.568 134.467 116.568 130.632V109.23C116.568 105.395 119.81 102.302 123.675 102.302H173.674C175.544 102.302 177.414 103.045 178.786 104.406C180.033 105.643 180.781 107.375 180.781 109.23V130.756H180.656Z" fill="url(#paint2_linear_161_2644)"/>
<path id="Vector_4" d="M135.021 112.446H132.278V109.849C132.278 108.364 131.031 107.003 129.411 107.003C127.79 107.003 126.543 108.24 126.543 109.849V112.446H123.8C122.303 112.446 120.932 113.684 120.932 115.292C120.932 116.9 122.179 118.137 123.8 118.137H126.543V120.735C126.543 122.22 127.79 123.58 129.411 123.58C131.031 123.58 132.278 122.343 132.278 120.735V118.137H135.021C136.518 118.137 137.889 116.9 137.889 115.292C137.889 113.684 136.518 112.446 135.021 112.446ZM169.809 112.694H170.307C170.432 112.694 170.681 112.57 170.806 112.57C170.931 112.446 171.18 112.446 171.305 112.323L171.679 111.952C172.178 111.457 172.552 110.715 172.552 109.972C172.552 109.23 172.302 108.488 171.679 107.993L171.305 107.622C171.18 107.498 170.931 107.498 170.806 107.374C170.681 107.251 170.432 107.251 170.307 107.251C169.434 107.127 168.437 107.374 167.814 107.993C167.315 108.488 166.941 109.23 166.941 109.972C166.941 110.715 167.19 111.457 167.814 111.952C168.312 112.323 169.06 112.694 169.809 112.694ZM166.317 113.312L165.943 112.941C165.819 112.818 165.569 112.818 165.445 112.694C165.32 112.57 165.07 112.57 164.946 112.57C164.073 112.446 163.076 112.694 162.452 113.312C161.953 113.807 161.579 114.55 161.579 115.292C161.579 116.034 161.829 116.776 162.452 117.271C162.701 117.519 163.076 117.766 163.325 117.89C163.699 118.013 164.073 118.137 164.447 118.137H164.946C165.195 118.137 165.32 118.013 165.445 118.013C165.569 118.013 165.819 117.89 165.943 117.766L166.317 117.395C166.816 116.9 167.19 116.158 167.19 115.416C167.19 114.55 166.816 113.807 166.317 113.312ZM167.814 119.251C167.315 119.745 166.941 120.488 166.941 121.23C166.941 121.972 167.19 122.714 167.814 123.209L168.188 123.58C168.312 123.704 168.562 123.828 168.686 123.828C168.811 123.952 169.06 123.952 169.185 123.952H170.183C170.307 123.952 170.557 123.828 170.681 123.828C170.806 123.704 171.055 123.704 171.18 123.58L171.554 123.209C172.053 122.714 172.427 121.972 172.427 121.23C172.427 120.488 172.178 119.745 171.554 119.251C170.806 118.137 168.936 118.137 167.814 119.251ZM177.788 114.178C177.664 114.055 177.664 113.807 177.539 113.684L177.165 113.312C176.542 112.694 175.544 112.323 174.671 112.57C174.547 112.57 174.297 112.694 174.173 112.694C174.048 112.694 173.798 112.818 173.674 112.941L173.3 113.312L172.926 113.684C172.801 113.807 172.676 114.055 172.676 114.178C172.552 114.302 172.552 114.55 172.552 114.673V115.168C172.552 115.91 172.801 116.653 173.424 117.147C173.923 117.642 174.671 118.013 175.419 118.013C176.167 118.013 176.916 117.766 177.414 117.147C177.913 116.653 178.287 115.91 178.287 115.168V114.673C177.913 114.55 177.913 114.426 177.788 114.178Z" fill="url(#paint3_linear_161_2644)"/>
<g id="Vector 57" filter="url(#filter0_b_161_2644)">
<path d="M153.996 90.2934C147.838 89.7371 117.392 90.2934 100.971 90.2934C84.5503 90.2934 82.8351 100.098 83.0604 105.929C82.8729 113.974 83.1819 129.383 83.1819 129.383C83.1819 129.383 83.8661 141.28 95.4974 141.28C104.802 141.28 109.409 133.802 110.55 130.063C119.786 129.043 138.602 130.063 138.602 130.063C138.602 130.063 142.023 139.921 151.943 141.28C159.88 142.368 165.969 138.221 165.969 130.063V108.309C165.969 94.1684 160.154 90.8496 153.996 90.2934Z" fill="url(#paint4_linear_161_2644)"/>
<path d="M84.0602 105.953L84.0609 105.922L84.0597 105.891C83.9505 103.064 84.3239 99.4407 86.5652 96.5354C88.7716 93.6752 92.9625 91.2934 100.971 91.2934C106.316 91.2934 113.149 91.2345 120.143 91.1742C123.897 91.1418 127.697 91.109 131.339 91.0848C141.804 91.015 150.889 91.0168 153.906 91.2893C156.838 91.5542 159.533 92.4597 161.524 94.8474C163.535 97.26 164.969 101.353 164.969 108.309V130.063C164.969 133.877 163.558 136.639 161.326 138.344C159.073 140.065 155.853 140.807 152.079 140.289C147.451 139.655 144.326 137.043 142.335 134.539C141.339 133.287 140.637 132.074 140.184 131.175C139.959 130.726 139.796 130.358 139.692 130.106C139.639 129.98 139.602 129.883 139.578 129.82C139.566 129.788 139.557 129.765 139.552 129.751L139.547 129.736L139.546 129.735L139.546 129.735L139.546 129.734L139.546 129.734L139.326 129.101L138.656 129.065L138.602 130.063C138.656 129.065 138.656 129.065 138.655 129.065L138.655 129.064L138.652 129.064L138.641 129.064L138.6 129.062L138.439 129.053C138.299 129.046 138.091 129.035 137.824 129.022C137.289 128.996 136.516 128.96 135.559 128.921C133.646 128.841 130.999 128.745 128.061 128.681C122.205 128.553 115.132 128.551 110.44 129.069L109.785 129.141L109.593 129.771C108.517 133.3 104.176 140.28 95.4974 140.28C90.1149 140.28 87.34 137.57 85.8554 134.852C85.1009 133.471 84.6792 132.08 84.4471 131.027C84.3315 130.503 84.2641 130.068 84.226 129.768C84.2069 129.618 84.1952 129.503 84.1884 129.427C84.1849 129.389 84.1828 129.361 84.1815 129.344L84.1812 129.34L84.1808 129.319L84.1783 129.189L84.1688 128.687C84.1607 128.25 84.1494 127.618 84.1364 126.833C84.1104 125.264 84.0776 123.089 84.0507 120.662C83.9969 115.804 83.9668 109.956 84.0602 105.953Z" stroke="url(#paint5_linear_161_2644)" stroke-width="2"/>
</g>
<g id="Group_2">
<g id="Vector_5" filter="url(#filter1_f_161_2644)">
<path d="M139.816 149.567C168.206 149.567 191.221 135.839 191.221 118.905C191.221 101.97 168.206 88.2422 139.816 88.2422C111.426 88.2422 88.4111 101.97 88.4111 118.905C88.4111 135.839 111.426 149.567 139.816 149.567Z" fill="url(#paint6_linear_161_2644)" fill-opacity="0.5"/>
</g>
<path id="Vector_6" d="M182.776 100.447C180.407 98.0962 177.04 96.6117 173.674 96.6117H151.355V77.5602C151.355 76.0757 150.108 74.7148 148.487 74.7148C146.866 74.7148 145.62 75.952 145.62 77.5602V96.7354H123.675C116.693 96.7354 110.957 102.302 110.957 109.23V130.756C110.957 137.684 116.693 143.251 123.675 143.251C130.034 143.251 135.271 138.673 136.268 132.859H161.205C162.203 138.797 167.44 143.375 173.798 143.375C180.781 143.375 186.516 137.808 186.516 130.88V109.23C186.392 106.014 185.145 102.921 182.776 100.447ZM180.656 130.756C180.656 134.591 177.539 137.684 173.549 137.684C169.559 137.684 166.442 134.591 166.442 130.756C166.442 128.777 164.821 127.168 162.826 127.168H134.398C132.403 127.168 130.782 128.777 130.782 130.756C130.782 134.467 127.54 137.56 123.675 137.56C119.685 137.56 116.568 134.467 116.568 130.632V109.23C116.568 105.395 119.81 102.302 123.675 102.302H173.674C175.544 102.302 177.414 103.045 178.786 104.406C180.033 105.643 180.781 107.375 180.781 109.23V130.756H180.656Z" fill="url(#paint7_linear_161_2644)"/>
<path id="Vector_7" d="M182.776 100.447C180.407 98.0962 177.04 96.6117 173.674 96.6117H151.355V77.5602C151.355 76.0757 150.108 74.7148 148.487 74.7148C146.866 74.7148 145.62 75.952 145.62 77.5602V96.7354H123.675C116.693 96.7354 110.957 102.302 110.957 109.23V130.756C110.957 137.684 116.693 143.251 123.675 143.251C130.034 143.251 135.271 138.673 136.268 132.859H161.205C162.203 138.797 167.44 143.375 173.798 143.375C180.781 143.375 186.516 137.808 186.516 130.88V109.23C186.392 106.014 185.145 102.921 182.776 100.447ZM180.656 130.756C180.656 134.591 177.539 137.684 173.549 137.684C169.559 137.684 166.442 134.591 166.442 130.756C166.442 128.777 164.821 127.168 162.826 127.168H134.398C132.403 127.168 130.782 128.777 130.782 130.756C130.782 134.467 127.54 137.56 123.675 137.56C119.685 137.56 116.568 134.467 116.568 130.632V109.23C116.568 105.395 119.81 102.302 123.675 102.302H173.674C175.544 102.302 177.414 103.045 178.786 104.406C180.033 105.643 180.781 107.375 180.781 109.23V130.756H180.656Z" fill="url(#paint8_linear_161_2644)"/>
<path id="Vector_8" d="M182.776 100.447C180.407 98.0962 177.04 96.6117 173.674 96.6117H151.355V77.5602C151.355 76.0757 150.108 74.7148 148.487 74.7148C146.866 74.7148 145.62 75.952 145.62 77.5602V96.7354H123.675C116.693 96.7354 110.957 102.302 110.957 109.23V130.756C110.957 137.684 116.693 143.251 123.675 143.251C130.034 143.251 135.271 138.673 136.268 132.859H161.205C162.203 138.797 167.44 143.375 173.798 143.375C180.781 143.375 186.516 137.808 186.516 130.88V109.23C186.392 106.014 185.145 102.921 182.776 100.447ZM180.656 130.756C180.656 134.591 177.539 137.684 173.549 137.684C169.559 137.684 166.442 134.591 166.442 130.756C166.442 128.777 164.821 127.168 162.826 127.168H134.398C132.403 127.168 130.782 128.777 130.782 130.756C130.782 134.467 127.54 137.56 123.675 137.56C119.685 137.56 116.568 134.467 116.568 130.632V109.23C116.568 105.395 119.81 102.302 123.675 102.302H173.674C175.544 102.302 177.414 103.045 178.786 104.406C180.033 105.643 180.781 107.375 180.781 109.23V130.756H180.656Z" fill="url(#paint9_linear_161_2644)"/>
<path id="Vector_9" d="M135.021 112.446H132.278V109.849C132.278 108.364 131.031 107.003 129.411 107.003C127.79 107.003 126.543 108.24 126.543 109.849V112.446H123.8C122.304 112.446 120.932 113.684 120.932 115.292C120.932 116.9 122.179 118.137 123.8 118.137H126.543V120.735C126.543 122.22 127.79 123.58 129.411 123.58C131.031 123.58 132.278 122.343 132.278 120.735V118.137H135.021C136.518 118.137 137.889 116.9 137.889 115.292C137.889 113.684 136.518 112.446 135.021 112.446ZM169.809 112.694H170.307C170.432 112.694 170.681 112.57 170.806 112.57C170.931 112.446 171.18 112.446 171.305 112.323L171.679 111.952C172.178 111.457 172.552 110.715 172.552 109.972C172.552 109.23 172.302 108.488 171.679 107.993L171.305 107.622C171.18 107.498 170.931 107.498 170.806 107.374C170.681 107.251 170.432 107.251 170.307 107.251C169.435 107.127 168.437 107.374 167.814 107.993C167.315 108.488 166.941 109.23 166.941 109.972C166.941 110.715 167.19 111.457 167.814 111.952C168.312 112.323 169.06 112.694 169.809 112.694ZM166.317 113.312L165.943 112.941C165.819 112.818 165.569 112.818 165.445 112.694C165.32 112.57 165.071 112.57 164.946 112.57C164.073 112.446 163.076 112.694 162.452 113.312C161.953 113.807 161.579 114.55 161.579 115.292C161.579 116.034 161.829 116.776 162.452 117.271C162.702 117.519 163.076 117.766 163.325 117.89C163.699 118.013 164.073 118.137 164.447 118.137H164.946C165.195 118.137 165.32 118.013 165.445 118.013C165.569 118.013 165.819 117.89 165.943 117.766L166.317 117.395C166.816 116.9 167.19 116.158 167.19 115.416C167.19 114.55 166.816 113.807 166.317 113.312ZM167.814 119.251C167.315 119.745 166.941 120.488 166.941 121.23C166.941 121.972 167.19 122.714 167.814 123.209L168.188 123.58C168.312 123.704 168.562 123.828 168.686 123.828C168.811 123.952 169.06 123.952 169.185 123.952H170.183C170.307 123.952 170.557 123.828 170.681 123.828C170.806 123.704 171.055 123.704 171.18 123.58L171.554 123.209C172.053 122.714 172.427 121.972 172.427 121.23C172.427 120.488 172.178 119.745 171.554 119.251C170.806 118.137 168.936 118.137 167.814 119.251ZM177.788 114.178C177.664 114.055 177.664 113.807 177.539 113.684L177.165 113.312C176.542 112.694 175.544 112.323 174.671 112.57C174.547 112.57 174.297 112.694 174.173 112.694C174.048 112.694 173.798 112.818 173.674 112.941L173.3 113.312L172.926 113.684C172.801 113.807 172.676 114.055 172.676 114.178C172.552 114.302 172.552 114.55 172.552 114.673V115.168C172.552 115.91 172.801 116.653 173.424 117.147C173.923 117.642 174.671 118.013 175.419 118.013C176.168 118.013 176.916 117.766 177.414 117.147C177.913 116.653 178.287 115.91 178.287 115.168V114.673C177.913 114.55 177.913 114.426 177.788 114.178Z" fill="url(#paint10_linear_161_2644)"/>
</g>
</g>
</g>
<defs>
<filter id="filter0_b_161_2644" x="65" y="72.0461" width="118.969" height="87.405" filterUnits="userSpaceOnUse" color-interpolation-filters="sRGB">
<feFlood flood-opacity="0" result="BackgroundImageFix"/>
<feGaussianBlur in="BackgroundImageFix" stdDeviation="9"/>
<feComposite in2="SourceAlpha" operator="in" result="effect1_backgroundBlur_161_2644"/>
<feBlend mode="normal" in="SourceGraphic" in2="effect1_backgroundBlur_161_2644" result="shape"/>
</filter>
<filter id="filter1_f_161_2644" x="0.411087" y="0.242188" width="278.81" height="237.325" filterUnits="userSpaceOnUse" color-interpolation-filters="sRGB">
<feFlood flood-opacity="0" result="BackgroundImageFix"/>
<feBlend mode="normal" in="SourceGraphic" in2="BackgroundImageFix" result="shape"/>
<feGaussianBlur stdDeviation="44" result="effect1_foregroundBlur_161_2644"/>
</filter>
<linearGradient id="paint0_linear_161_2644" x1="140.771" y1="77.0369" x2="154.542" y2="145.072" gradientUnits="userSpaceOnUse">
<stop stop-color="#0BC7FF"/>
<stop offset="1" stop-color="#DB0EFE"/>
</linearGradient>
<linearGradient id="paint1_linear_161_2644" x1="143.563" y1="107.576" x2="144.709" y2="124.983" gradientUnits="userSpaceOnUse">
<stop stop-color="#0BC7FF"/>
<stop offset="1" stop-color="#DB0EFE"/>
</linearGradient>
<linearGradient id="paint2_linear_161_2644" x1="23.6417" y1="159.032" x2="157.189" y2="44.1312" gradientUnits="userSpaceOnUse">
<stop stop-color="#7C00FF"/>
<stop offset="0.52" stop-color="#FF6700"/>
<stop offset="1" stop-color="#FFD400"/>
</linearGradient>
<linearGradient id="paint3_linear_161_2644" x1="54.6529" y1="127.817" x2="76.7048" y2="69.4732" gradientUnits="userSpaceOnUse">
<stop stop-color="#7C00FF"/>
<stop offset="0.52" stop-color="#FF6700"/>
<stop offset="1" stop-color="#FFD400"/>
</linearGradient>
<linearGradient id="paint4_linear_161_2644" x1="87.6841" y1="138.549" x2="128.516" y2="72.6454" gradientUnits="userSpaceOnUse">
<stop stop-color="white" stop-opacity="0.2"/>
<stop offset="1" stop-color="white" stop-opacity="0.49"/>
</linearGradient>
<linearGradient id="paint5_linear_161_2644" x1="88.8567" y1="94.089" x2="126.22" y2="158.571" gradientUnits="userSpaceOnUse">
<stop stop-color="white"/>
<stop offset="1" stop-color="white" stop-opacity="0"/>
</linearGradient>
<linearGradient id="paint6_linear_161_2644" x1="88.4111" y1="118.905" x2="191.221" y2="118.905" gradientUnits="userSpaceOnUse">
<stop stop-color="#FFB701"/>
<stop offset="1" stop-color="#F45F17"/>
</linearGradient>
<linearGradient id="paint7_linear_161_2644" x1="23.6417" y1="159.032" x2="157.189" y2="44.1312" gradientUnits="userSpaceOnUse">
<stop stop-color="#7C00FF"/>
<stop offset="0.52" stop-color="#FF6700"/>
<stop offset="1" stop-color="#FFD400"/>
</linearGradient>
<linearGradient id="paint8_linear_161_2644" x1="23.6417" y1="159.032" x2="157.189" y2="44.1312" gradientUnits="userSpaceOnUse">
<stop stop-color="#7C00FF"/>
<stop offset="0.52" stop-color="#FF6700"/>
<stop offset="1" stop-color="#FFD400"/>
</linearGradient>
<linearGradient id="paint9_linear_161_2644" x1="23.6417" y1="159.032" x2="157.189" y2="44.1312" gradientUnits="userSpaceOnUse">
<stop stop-color="#7C00FF"/>
<stop offset="0.52" stop-color="#FF6700"/>
<stop offset="1" stop-color="#FFD400"/>
</linearGradient>
<linearGradient id="paint10_linear_161_2644" x1="54.653" y1="127.817" x2="76.7048" y2="69.4732" gradientUnits="userSpaceOnUse">
<stop stop-color="#7C00FF"/>
<stop offset="0.52" stop-color="#FF6700"/>
<stop offset="1" stop-color="#FFD400"/>
</linearGradient>
</defs>
</svg>
