<svg width="226" height="226" viewBox="0 0 226 226" fill="none" xmlns="http://www.w3.org/2000/svg">
<g id="chat">
<g id="Vector" filter="url(#filter0_f_161_2528)">
<path d="M113.868 88.5265C126.699 88.94 137.058 99.5087 137.186 112.297C137.229 116.979 135.929 121.352 133.646 125.067C133.322 125.59 133.261 126.228 133.457 126.806L135.697 133.495C136.466 135.8 134.171 137.946 131.912 137.034L124.996 134.237C124.459 134.018 123.855 134.024 123.336 134.268C120.253 135.715 116.816 136.536 113.191 136.548C100.194 136.609 89.3594 126.192 88.9809 113.252C88.5719 99.3932 99.9564 88.0765 113.874 88.5204L113.868 88.5265Z" fill="url(#paint0_linear_161_2528)"/>
</g>
<g id="Group 30">
<path id="Vector_2" d="M132.664 98.227C147.705 98.7118 159.849 111.101 159.999 126.092C160.049 131.581 158.525 136.706 155.848 141.062C155.469 141.675 155.398 142.423 155.627 143.1L158.253 150.942C159.154 153.643 156.464 156.16 153.816 155.09L145.709 151.811C145.079 151.555 144.371 151.562 143.762 151.847C140.149 153.544 136.12 154.506 131.87 154.52C116.635 154.591 103.933 142.38 103.49 127.211C103.01 110.965 116.356 97.6995 132.671 98.2199L132.664 98.227Z" fill="url(#paint1_linear_161_2528)"/>
<g id="Vector_3" filter="url(#filter1_b_161_2528)">
<path d="M101.349 68.7344C81.8938 69.3605 66.1935 85.482 66.0019 104.99C65.9309 112.133 67.9041 118.806 71.3678 124.463C71.8575 125.259 71.9498 126.234 71.6588 127.123L68.266 137.333C67.0949 140.847 70.5728 144.12 74.0011 142.725L84.4916 138.464C85.3007 138.137 86.2164 138.137 87.0113 138.514C91.6817 140.719 96.8914 141.971 102.392 141.993C122.096 142.078 138.52 126.198 139.095 106.456C139.712 85.3113 122.458 68.0514 101.356 68.7344H101.349Z" fill="url(#paint2_linear_161_2528)"/>
<path d="M67.0018 105L67.0018 105C67.1882 86.03 82.4561 70.3515 101.365 69.7344H101.372L101.388 69.7339C121.911 69.0697 138.696 85.8555 138.095 106.426C137.536 125.628 121.557 141.076 102.397 140.993H102.396C97.0462 140.972 91.9805 139.754 87.4383 137.609C86.3719 137.104 85.1643 137.113 84.1166 137.537L84.1152 137.537L73.6247 141.799L73.6243 141.799C70.9922 142.87 68.3119 140.358 69.2148 137.649L69.215 137.648L72.6078 127.439L72.6092 127.434C72.9857 126.284 72.8727 125.002 72.2202 123.94C68.8519 118.439 66.9327 111.95 67.0018 105Z" stroke="url(#paint3_linear_161_2528)" stroke-width="2"/>
</g>
</g>
</g>
<defs>
<filter id="filter0_f_161_2528" x="0.970215" y="0.507812" width="224.217" height="224.741" filterUnits="userSpaceOnUse" color-interpolation-filters="sRGB">
<feFlood flood-opacity="0" result="BackgroundImageFix"/>
<feBlend mode="normal" in="SourceGraphic" in2="BackgroundImageFix" result="shape"/>
<feGaussianBlur stdDeviation="44" result="effect1_foregroundBlur_161_2528"/>
</filter>
<filter id="filter1_b_161_2528" x="48" y="50.7148" width="109.111" height="110.34" filterUnits="userSpaceOnUse" color-interpolation-filters="sRGB">
<feFlood flood-opacity="0" result="BackgroundImageFix"/>
<feGaussianBlur in="BackgroundImageFix" stdDeviation="9"/>
<feComposite in2="SourceAlpha" operator="in" result="effect1_backgroundBlur_161_2528"/>
<feBlend mode="normal" in="SourceGraphic" in2="effect1_backgroundBlur_161_2528" result="shape"/>
</filter>
<linearGradient id="paint0_linear_161_2528" x1="107.996" y1="90.1562" x2="118.77" y2="138.007" gradientUnits="userSpaceOnUse">
<stop stop-color="#0BC7FF"/>
<stop offset="1" stop-color="#DB0EFE"/>
</linearGradient>
<linearGradient id="paint1_linear_161_2528" x1="125.78" y1="100.137" x2="138.411" y2="156.23" gradientUnits="userSpaceOnUse">
<stop stop-color="#0BC7FF"/>
<stop offset="1" stop-color="#DB0EFE"/>
</linearGradient>
<linearGradient id="paint2_linear_161_2528" x1="70.1275" y1="138.858" x2="136.064" y2="74.0108" gradientUnits="userSpaceOnUse">
<stop stop-color="white" stop-opacity="0.2"/>
<stop offset="1" stop-color="white" stop-opacity="0.49"/>
</linearGradient>
<linearGradient id="paint3_linear_161_2528" x1="71.1608" y1="74.5615" x2="133.362" y2="139.97" gradientUnits="userSpaceOnUse">
<stop stop-color="white"/>
<stop offset="1" stop-color="white" stop-opacity="0"/>
</linearGradient>
</defs>
</svg>
