<svg width="278" height="219" viewBox="0 0 278 219" fill="none" xmlns="http://www.w3.org/2000/svg">
<g id="pin">
<g id="Vector" filter="url(#filter0_f_161_2514)">
<path d="M165.331 130.528H112.483C108.834 130.528 105.436 128.685 103.436 125.629L89.7768 104.729C85.0819 97.5429 90.2399 88.0142 98.8241 88.0142H178.99C187.574 88.0142 192.732 97.5429 188.037 104.729L174.378 125.629C172.378 128.685 168.979 130.528 165.331 130.528Z" fill="url(#paint0_linear_161_2514)"/>
</g>
<g id="pin_2">
<g id="Group 6">
<path id="Vector_2" d="M165.331 130.527H112.483C108.834 130.527 105.436 128.685 103.436 125.629L89.7768 104.729C85.0819 97.5426 90.2399 88.0139 98.8241 88.0139H178.99C187.574 88.0139 192.732 97.5426 188.037 104.729L174.378 125.629C172.378 128.685 168.979 130.527 165.331 130.527Z" fill="url(#paint1_linear_161_2514)"/>
<g id="Vector_3" filter="url(#filter1_b_161_2514)">
<path d="M166.1 32.9064C151.08 17.8863 126.734 17.8863 111.724 32.9064C96.7037 47.9264 96.7037 72.2714 111.724 87.2822L131.55 107.108C135.615 111.174 142.208 111.174 146.273 107.108L166.1 87.2822C181.12 72.2622 181.12 47.9171 166.1 32.9064ZM151.505 72.6882C144.551 79.6426 133.272 79.6426 126.308 72.6882C119.354 65.7338 119.354 54.4548 126.308 47.4912C133.263 40.5368 144.542 40.5368 151.505 47.4912C158.46 54.4456 158.46 65.7245 151.505 72.6882Z" fill="url(#paint2_linear_161_2514)"/>
<path d="M165.392 33.6135L165.393 33.6137C180.022 48.2338 180.022 71.9455 165.392 86.5751L145.566 106.401C141.892 110.076 135.932 110.076 132.257 106.401L112.431 86.5751L112.431 86.5749C97.8015 71.9548 97.8012 48.2431 112.431 33.6135L112.431 33.6133C127.051 18.9842 150.763 18.9839 165.392 33.6135ZM152.213 73.3953L152.213 73.3948C159.557 66.041 159.558 54.1293 152.213 46.7841L152.212 46.7836C144.858 39.4396 132.947 39.4389 125.601 46.7841L125.601 46.7845C118.257 54.1384 118.256 66.0501 125.601 73.3953L125.602 73.3957C132.956 80.7398 144.867 80.7405 152.213 73.3953Z" stroke="url(#paint3_linear_161_2514)" stroke-width="2"/>
</g>
</g>
</g>
</g>
<defs>
<filter id="filter0_f_161_2514" x="0" y="0.0141602" width="277.814" height="218.514" filterUnits="userSpaceOnUse" color-interpolation-filters="sRGB">
<feFlood flood-opacity="0" result="BackgroundImageFix"/>
<feBlend mode="normal" in="SourceGraphic" in2="BackgroundImageFix" result="shape"/>
<feGaussianBlur stdDeviation="44" result="effect1_foregroundBlur_161_2514"/>
</filter>
<filter id="filter1_b_161_2514" x="82.4587" y="3.64136" width="112.906" height="124.516" filterUnits="userSpaceOnUse" color-interpolation-filters="sRGB">
<feFlood flood-opacity="0" result="BackgroundImageFix"/>
<feGaussianBlur in="BackgroundImageFix" stdDeviation="9"/>
<feComposite in2="SourceAlpha" operator="in" result="effect1_backgroundBlur_161_2514"/>
<feBlend mode="normal" in="SourceGraphic" in2="effect1_backgroundBlur_161_2514" result="shape"/>
</filter>
<linearGradient id="paint0_linear_161_2514" x1="88.0081" y1="109.266" x2="189.815" y2="109.266" gradientUnits="userSpaceOnUse">
<stop stop-color="#7C00FF"/>
<stop offset="1" stop-color="#2CF19A"/>
</linearGradient>
<linearGradient id="paint1_linear_161_2514" x1="88.0081" y1="109.266" x2="189.815" y2="109.266" gradientUnits="userSpaceOnUse">
<stop stop-color="#7C00FF"/>
<stop offset="1" stop-color="#2CF19A"/>
</linearGradient>
<linearGradient id="paint2_linear_161_2514" x1="104.8" y1="105.16" x2="182.552" y2="37.6064" gradientUnits="userSpaceOnUse">
<stop stop-color="white" stop-opacity="0.2"/>
<stop offset="1" stop-color="white" stop-opacity="0.49"/>
</linearGradient>
<linearGradient id="paint3_linear_161_2514" x1="105.887" y1="28.603" x2="179.843" y2="97.3072" gradientUnits="userSpaceOnUse">
<stop stop-color="white"/>
<stop offset="1" stop-color="white" stop-opacity="0"/>
</linearGradient>
</defs>
</svg>
