<svg width="14" height="15" viewBox="0 0 14 15" fill="none" xmlns="http://www.w3.org/2000/svg">
<g id="Logo Discord" clip-path="url(#clip0_67_3612)">
<path id="Vector" d="M14 15L10.2686 11.8976L10.6446 13.2482H1.90909C0 13.2482 0 11.6058 0 11.6058V1.64234C0 1.64234 0 0.287956 1.43008 0.0394161L1.44628 0H12.5537L12.5179 0.0317518C13.9983 0.256752 14 1.64234 14 1.64234V15ZM10.7077 4.56898C10.5636 3.91697 8.38264 3.25401 8.18479 3.55949C8.25248 3.74672 9.27066 3.78723 10.2281 4.54872C9.32504 3.99416 7.92504 3.8365 7.24124 3.79161L7.01331 3.78011H7.00926L6.78653 3.79161C6.10215 3.83595 4.70446 3.99361 3.80083 4.54818C4.75826 3.78668 5.7776 3.74617 5.84471 3.55894C5.64686 3.25401 3.46587 3.91642 3.32182 4.56843C3.32182 4.56843 2.18388 6.66788 2.35686 8.67263C3.0314 9.58412 4.45512 9.85839 4.83984 9.76752C5.22512 9.3115 5.28182 9.18285 5.28182 9.18285C5.28182 9.18285 4.20463 8.7635 3.93736 8.29872C4.5095 8.58504 5.03248 9.08704 6.76802 9.14179H7.23083C8.96636 9.08704 9.50496 8.58504 10.0771 8.29872C9.80926 8.7635 8.74595 9.18613 8.74595 9.18613C8.74595 9.18613 8.80322 9.31314 9.18851 9.76916C9.57322 9.86004 10.9981 9.58467 11.6721 8.67317C11.8456 6.66843 10.7071 4.56843 10.7071 4.56843L10.7077 4.56898Z" fill="black"/>
<path id="Vector_2" d="M4.74072 7.11693C4.74072 6.62149 5.05023 6.27441 5.57436 6.27441C6.09849 6.27441 6.35014 6.84978 6.35014 7.11693C6.35014 7.33591 6.09849 7.95945 5.57436 7.95945C5.05023 7.95945 4.74072 7.61237 4.74072 7.11693Z" fill="black"/>
<path id="Vector_3" d="M9.24223 7.11693C9.24223 6.62149 8.93273 6.27441 8.4086 6.27441C7.88447 6.27441 7.63281 6.84978 7.63281 7.11693C7.63281 7.33591 7.88447 7.95945 8.4086 7.95945C8.93273 7.95945 9.24223 7.61237 9.24223 7.11693Z" fill="black"/>
</g>
<defs>
<clipPath id="clip0_67_3612">
<rect width="14" height="15" fill="white"/>
</clipPath>
</defs>
</svg>
